<?xml version="1.0" encoding="UTF-8"?>
<!-- Generated by Pixelmator Pro 3.8 -->
<svg width="1041" height="1043" viewBox="0 0 1041 1043" xmlns="http://www.w3.org/2000/svg">
    <g id="fireworks-5--copy">
        <g id="Group">
            <path id="Path" fill="#fdf5e2" stroke="none" d="M 520 405.466797 L 494.472961 140.739502 L 520 128.133301 L 545.527527 140.739502 L 520 405.466797 Z"/>
            <path id="path1" fill="#fdf5e2" stroke="none" d="M 475.404602 414.336914 L 350.513794 179.530029 L 369.273743 158.114746 L 397.682129 159.992188 L 475.404602 414.336914 Z"/>
            <path id="path2" fill="#fdf5e2" stroke="none" d="M 437.598755 439.598389 L 232.357483 270.458252 L 241.494171 243.494141 L 268.45874 234.357422 L 437.598755 439.598389 Z"/>
            <path id="path3" fill="#fdf5e2" stroke="none" d="M 412.337463 477.404541 L 157.992523 399.682129 L 156.114594 371.273926 L 177.529999 352.513672 L 412.337463 477.404541 Z"/>
            <path id="path4" fill="#fdf5e2" stroke="none" d="M 403.466675 522 L 138.739563 547.5271 L 126.133331 522 L 138.739563 496.472656 L 403.466675 522 Z"/>
            <path id="path5" fill="#fdf5e2" stroke="none" d="M 412.337097 566.595459 L 177.529999 691.486328 L 156.114594 672.726074 L 157.992096 644.317871 L 412.337097 566.595459 Z"/>
            <path id="path6" fill="#fdf5e2" stroke="none" d="M 437.598328 604.401367 L 268.458313 809.642334 L 241.494171 800.505615 L 232.357483 773.541016 L 437.598328 604.401367 Z"/>
            <path id="path7" fill="#fdf5e2" stroke="none" d="M 475.404602 629.662354 L 397.682129 884.007324 L 369.273743 885.885498 L 350.513794 864.469971 L 475.404602 629.662354 Z"/>
            <path id="path8" fill="#fdf5e2" stroke="none" d="M 520 638.533203 L 545.527039 903.260498 L 520 915.866699 L 494.472473 903.260498 L 520 638.533203 Z"/>
            <path id="path9" fill="#fdf5e2" stroke="none" d="M 564.595398 629.663086 L 689.486267 864.469971 L 670.726257 885.885498 L 642.317871 884.007813 L 564.595398 629.663086 Z"/>
            <path id="path10" fill="#fdf5e2" stroke="none" d="M 602.401245 604.401611 L 807.642456 773.541748 L 798.505859 800.505615 L 771.54126 809.642334 L 602.401245 604.401611 Z"/>
            <path id="path11" fill="#fdf5e2" stroke="none" d="M 627.662537 566.595459 L 882.007568 644.317871 L 883.885376 672.726074 L 862.469971 691.486328 L 627.662537 566.595459 Z"/>
            <path id="path12" fill="#fdf5e2" stroke="none" d="M 636.533325 522 L 901.260376 496.4729 L 913.866699 522 L 901.260376 547.527344 L 636.533325 522 Z"/>
            <path id="path13" fill="#fdf5e2" stroke="none" d="M 627.662903 477.404541 L 862.469971 352.513672 L 883.885376 371.273926 L 882.007935 399.682129 L 627.662903 477.404541 Z"/>
            <path id="path14" fill="#fdf5e2" stroke="none" d="M 602.401672 439.598633 L 771.541626 234.357422 L 798.505859 243.494141 L 807.642456 270.45874 L 602.401672 439.598633 Z"/>
            <path id="path15" fill="#fdf5e2" stroke="none" d="M 564.595398 414.337646 L 642.317871 159.992432 L 670.726257 158.114746 L 689.486267 179.530029 L 564.595398 414.337646 Z"/>
        </g>
        <g id="g1">
            <path id="path16" fill="#fdf5e2" stroke="none" d="M 520 80.39502 L 489.280457 96.54541 L 495.147034 62.338867 L 470.294556 38.113281 L 504.640015 33.122559 L 520 2 L 535.359985 33.122559 L 569.705444 38.113281 L 544.852966 62.338867 L 550.719543 96.54541 L 520 80.39502 Z"/>
            <path id="path17" fill="#fdf5e2" stroke="none" d="M 351.005005 114.010254 L 328.804169 140.687012 L 321.134186 106.839111 L 288.902496 93.968262 L 318.724182 76.214111 L 321.004578 41.58252 L 347.105408 64.458008 L 380.746277 55.925293 L 367.056274 87.817627 L 385.567078 117.175537 L 351.005005 114.010254 Z"/>
            <path id="path18" fill="#fdf5e2" stroke="none" d="M 207.738312 209.738281 L 197.436249 242.880371 L 177.396667 214.543701 L 142.693359 214.987549 L 163.450409 187.172363 L 152.304565 154.304688 L 185.172516 165.450439 L 212.987518 144.693359 L 212.543762 179.396729 L 240.880402 199.436279 L 207.738312 209.738281 Z"/>
            <path id="path19" fill="#fdf5e2" stroke="none" d="M 112.010406 353.004883 L 115.175415 387.567139 L 85.817505 369.056152 L 53.925415 382.746338 L 62.457916 349.105469 L 39.582489 323.004639 L 74.214157 320.724121 L 91.968323 290.902344 L 104.839142 323.134033 L 138.687103 330.804199 L 112.010406 353.004883 Z"/>
            <path id="path20" fill="#fdf5e2" stroke="none" d="M 78.39502 522 L 94.54541 552.719727 L 60.33876 546.852783 L 36.113327 571.705322 L 31.122498 537.360107 L 0 522 L 31.122498 506.639893 L 36.113327 472.294678 L 60.33876 497.147217 L 94.54541 491.280273 L 78.39502 522 Z"/>
            <path id="path21" fill="#fdf5e2" stroke="none" d="M 112.010406 690.995117 L 138.687103 713.195801 L 104.839142 720.865967 L 91.968323 753.097656 L 74.214157 723.275879 L 39.582489 720.995361 L 62.457916 694.894531 L 53.925415 661.253662 L 85.817505 674.943848 L 115.175415 656.432861 L 112.010406 690.995117 Z"/>
            <path id="path22" fill="#fdf5e2" stroke="none" d="M 207.738312 834.261719 L 240.880402 844.563721 L 212.543762 864.603271 L 212.987518 899.306641 L 185.172516 878.549561 L 152.304565 889.695313 L 163.450409 856.827393 L 142.693359 829.012451 L 177.396667 829.456299 L 197.436249 801.119629 L 207.738312 834.261719 Z"/>
            <path id="path23" fill="#fdf5e2" stroke="none" d="M 351.005005 929.989502 L 385.567078 926.824463 L 367.056274 956.182373 L 380.746277 988.074707 L 347.105408 979.542236 L 321.004578 1002.41748 L 318.724182 967.785889 L 288.902496 950.031738 L 321.134186 937.160889 L 328.804169 903.312744 L 351.005005 929.989502 Z"/>
            <path id="path24" fill="#fdf5e2" stroke="none" d="M 520 963.605225 L 550.719543 947.454346 L 544.852966 981.661377 L 569.705444 1005.886719 L 535.359985 1010.877686 L 520 1042 L 504.640015 1010.877686 L 470.294556 1005.886719 L 495.147034 981.661377 L 489.280457 947.454346 L 520 963.605225 Z"/>
            <path id="path25" fill="#fdf5e2" stroke="none" d="M 688.995056 929.989502 L 711.195801 903.312744 L 718.865845 937.160889 L 751.097473 950.031738 L 721.275818 967.785889 L 718.995422 1002.41748 L 692.894592 979.542236 L 659.253723 988.074707 L 672.943726 956.182373 L 654.432922 926.824463 L 688.995056 929.989502 Z"/>
            <path id="path26" fill="#fdf5e2" stroke="none" d="M 832.261658 834.261719 L 842.563721 801.119629 L 862.603271 829.456299 L 897.306641 829.012451 L 876.549561 856.827393 L 887.695313 889.695313 L 854.827515 878.549561 L 827.012512 899.306641 L 827.456299 864.603271 L 799.119568 844.563721 L 832.261658 834.261719 Z"/>
            <path id="path27" fill="#fdf5e2" stroke="none" d="M 927.989624 690.995117 L 924.824585 656.432861 L 954.182495 674.943848 L 986.074585 661.253662 L 977.541992 694.894531 L 1000.41748 720.995361 L 965.785767 723.275879 L 948.031616 753.097656 L 935.160889 720.865967 L 901.312988 713.195801 L 927.989624 690.995117 Z"/>
            <path id="path28" fill="#fdf5e2" stroke="none" d="M 961.60498 522 L 945.45459 491.280273 L 979.661255 497.147217 L 1003.886719 472.294678 L 1008.877441 506.639893 L 1040 522 L 1008.877441 537.360107 L 1003.886719 571.705322 L 979.661255 546.852783 L 945.45459 552.719727 L 961.60498 522 Z"/>
            <path id="path29" fill="#fdf5e2" stroke="none" d="M 927.989624 353.004883 L 901.312988 330.804199 L 935.160889 323.134033 L 948.031616 290.902344 L 965.785767 320.724121 L 1000.41748 323.004639 L 977.541992 349.105469 L 986.074585 382.746338 L 954.182495 369.056152 L 924.824585 387.567139 L 927.989624 353.004883 Z"/>
            <path id="path30" fill="#fdf5e2" stroke="none" d="M 832.261658 209.738281 L 799.119568 199.436279 L 827.456299 179.396729 L 827.012512 144.693359 L 854.827515 165.450439 L 887.695313 154.304688 L 876.549561 187.172363 L 897.306641 214.987549 L 862.603271 214.543701 L 842.563721 242.880371 L 832.261658 209.738281 Z"/>
            <path id="path31" fill="#fdf5e2" stroke="none" d="M 688.995056 114.010254 L 654.432922 117.175537 L 672.943726 87.817627 L 659.253723 55.925293 L 692.894592 64.458008 L 718.995422 41.58252 L 721.275818 76.214111 L 751.097473 93.968262 L 718.865845 106.839111 L 711.195801 140.687012 L 688.995056 114.010254 Z"/>
        </g>
    </g>
</svg>
