<?xml version="1.0" encoding="UTF-8"?>
<!-- Generated by Pixelmator Pro 3.8 -->
<svg width="1044" height="1041" viewBox="0 0 1044 1041" xmlns="http://www.w3.org/2000/svg">
    <g id="fireworks-4--copy">
        <g id="Group">
            <path id="Path" fill="#fdf5e2" stroke="none" d="M 522 416.999512 C 522 416.999512 553.451172 313 522 313 C 490.548828 313 522 416.999512 522 416.999512 Z"/>
            <path id="path1" fill="#fdf5e2" stroke="none" d="M 482.200684 424.916016 C 482.200684 424.916016 471.459473 316.796875 442.401855 328.833008 C 413.344238 340.869141 482.200684 424.916016 482.200684 424.916016 Z"/>
            <path id="path2" fill="#fdf5e2" stroke="none" d="M 448.460938 447.460938 C 448.460938 447.460938 397.161133 351.682129 374.921875 373.921875 C 352.682129 396.161133 448.460938 447.460938 448.460938 447.460938 Z"/>
            <path id="path3" fill="#fdf5e2" stroke="none" d="M 425.916016 481.200684 C 425.916016 481.200684 341.869141 412.344238 329.833008 441.401855 C 317.796875 470.458984 425.916016 481.200684 425.916016 481.200684 Z"/>
            <path id="path4" fill="#fdf5e2" stroke="none" d="M 417.999512 521 C 417.999512 521 314 489.54834 314 521 C 314 552.45166 417.999512 521 417.999512 521 Z"/>
            <path id="path5" fill="#fdf5e2" stroke="none" d="M 425.916016 560.799316 C 425.916016 560.799316 317.796875 571.541016 329.833008 600.598145 C 341.869141 629.655762 425.916016 560.799316 425.916016 560.799316 Z"/>
            <path id="path6" fill="#fdf5e2" stroke="none" d="M 448.460938 594.539063 C 448.460938 594.539063 352.682129 645.838867 374.921875 668.078125 C 397.161133 690.317871 448.460938 594.539063 448.460938 594.539063 Z"/>
            <path id="path7" fill="#fdf5e2" stroke="none" d="M 482.200684 617.083984 C 482.200684 617.083984 413.344238 701.130859 442.401855 713.166992 C 471.458984 725.202881 482.200684 617.083984 482.200684 617.083984 Z"/>
            <path id="path8" fill="#fdf5e2" stroke="none" d="M 522 625.000488 C 522 625.000488 490.548828 729 522 729 C 553.451172 729 522 625.000488 522 625.000488 Z"/>
            <path id="path9" fill="#fdf5e2" stroke="none" d="M 561.798828 617.083984 C 561.798828 617.083984 572.540527 725.202881 601.598633 713.166992 C 630.655762 701.130859 561.798828 617.083984 561.798828 617.083984 Z"/>
            <path id="path10" fill="#fdf5e2" stroke="none" d="M 595.539063 594.539063 C 595.539063 594.539063 646.838867 690.317871 669.078613 668.078125 C 691.318359 645.838867 595.539063 594.539063 595.539063 594.539063 Z"/>
            <path id="path11" fill="#fdf5e2" stroke="none" d="M 618.083496 560.799316 C 618.083496 560.799316 702.130859 629.655762 714.166992 600.598145 C 726.202637 571.541016 618.083496 560.799316 618.083496 560.799316 Z"/>
            <path id="path12" fill="#fdf5e2" stroke="none" d="M 626.000488 521 C 626.000488 521 730 552.45166 730 521 C 730 489.54834 626.000488 521 626.000488 521 Z"/>
            <path id="path13" fill="#fdf5e2" stroke="none" d="M 618.083496 481.200684 C 618.083496 481.200684 726.202637 470.458984 714.166992 441.401855 C 702.130859 412.344238 618.083496 481.200684 618.083496 481.200684 Z"/>
            <path id="path14" fill="#fdf5e2" stroke="none" d="M 595.539063 447.460938 C 595.539063 447.460938 691.318359 396.161133 669.078613 373.921875 C 646.838867 351.682129 595.539063 447.460938 595.539063 447.460938 Z"/>
            <path id="path15" fill="#fdf5e2" stroke="none" d="M 561.798828 424.916016 C 561.798828 424.916016 630.655762 340.869141 601.598633 328.833008 C 572.540527 316.796875 561.798828 424.916016 561.798828 424.916016 Z"/>
        </g>
        <g id="g1">
            <path id="path16" fill="#fdf5e2" stroke="none" d="M 522 267.302734 C 522 267.302734 559.742188 157 522 157 C 484.257813 157 522 267.302734 522 267.302734 Z"/>
            <path id="path17" fill="#fdf5e2" stroke="none" d="M 424.914063 286.614258 C 424.914063 286.614258 417.572266 170.264648 382.703125 184.708008 C 347.833984 199.151367 424.914063 286.614258 424.914063 286.614258 Z"/>
            <path id="path18" fill="#fdf5e2" stroke="none" d="M 342.608887 341.608887 C 342.608887 341.608887 291.300781 236.925293 264.613037 263.612793 C 237.925293 290.300781 342.608887 341.608887 342.608887 341.608887 Z"/>
            <path id="path19" fill="#fdf5e2" stroke="none" d="M 287.614014 423.914063 C 287.614014 423.914063 200.151123 346.833984 185.708008 381.703125 C 171.264648 416.572266 287.614014 423.914063 287.614014 423.914063 Z"/>
            <path id="path20" fill="#fdf5e2" stroke="none" d="M 268.302734 521 C 268.302734 521 158 483.257813 158 521 C 158 558.742188 268.302734 521 268.302734 521 Z"/>
            <path id="path21" fill="#fdf5e2" stroke="none" d="M 287.614014 618.085938 C 287.614014 618.085938 171.264648 625.427734 185.708008 660.296875 C 200.151123 695.166016 287.614014 618.085938 287.614014 618.085938 Z"/>
            <path id="path22" fill="#fdf5e2" stroke="none" d="M 342.608887 700.391113 C 342.608887 700.391113 237.925293 751.699219 264.613037 778.386719 C 291.300781 805.074707 342.608887 700.391113 342.608887 700.391113 Z"/>
            <path id="path23" fill="#fdf5e2" stroke="none" d="M 424.914063 755.385742 C 424.914063 755.385742 347.833984 842.848633 382.703125 857.291992 C 417.572266 871.735352 424.914063 755.385742 424.914063 755.385742 Z"/>
            <path id="path24" fill="#fdf5e2" stroke="none" d="M 522 774.69751 C 522 774.69751 484.257813 885 522 885 C 559.742188 885 522 774.69751 522 774.69751 Z"/>
            <path id="path25" fill="#fdf5e2" stroke="none" d="M 619.085938 755.385742 C 619.085938 755.385742 626.428223 871.735352 661.296875 857.291992 C 696.166016 842.848633 619.085938 755.385742 619.085938 755.385742 Z"/>
            <path id="path26" fill="#fdf5e2" stroke="none" d="M 701.391602 700.391113 C 701.391602 700.391113 752.699219 805.074707 779.387207 778.386719 C 806.074219 751.699219 701.391602 700.391113 701.391602 700.391113 Z"/>
            <path id="path27" fill="#fdf5e2" stroke="none" d="M 756.385742 618.085938 C 756.385742 618.085938 843.848633 695.166016 858.291992 660.296875 C 872.735352 625.427734 756.385742 618.085938 756.385742 618.085938 Z"/>
            <path id="path28" fill="#fdf5e2" stroke="none" d="M 775.697266 521 C 775.697266 521 886 558.742188 886 521 C 886 483.257813 775.697266 521 775.697266 521 Z"/>
            <path id="path29" fill="#fdf5e2" stroke="none" d="M 756.385742 423.914063 C 756.385742 423.914063 872.735352 416.572266 858.291992 381.703125 C 843.848633 346.833984 756.385742 423.914063 756.385742 423.914063 Z"/>
            <path id="path30" fill="#fdf5e2" stroke="none" d="M 701.391602 341.608887 C 701.391602 341.608887 806.074219 290.300781 779.387207 263.613281 C 752.699219 236.925293 701.391602 341.608887 701.391602 341.608887 Z"/>
            <path id="path31" fill="#fdf5e2" stroke="none" d="M 619.085938 286.614258 C 619.085938 286.614258 696.166016 199.151367 661.296875 184.708008 C 626.428223 170.264648 619.085938 286.614258 619.085938 286.614258 Z"/>
        </g>
        <g id="g2">
            <path id="path32" fill="#fdf5e2" stroke="none" d="M 522 114.043457 C 522 114.043457 559.742188 1 522 1 C 484.257813 1 522 114.043457 522 114.043457 Z"/>
            <path id="path33" fill="#fdf5e2" stroke="none" d="M 366.264648 145.020996 C 366.264648 145.020996 357.873535 26.139648 323.004395 40.58252 C 288.135986 55.025879 366.264648 145.020996 366.264648 145.020996 Z"/>
            <path id="path34" fill="#fdf5e2" stroke="none" d="M 234.237793 233.237793 C 234.237793 233.237793 180.991943 126.617188 154.304688 153.304688 C 127.616943 179.992188 234.237793 233.237793 234.237793 233.237793 Z"/>
            <path id="path35" fill="#fdf5e2" stroke="none" d="M 146.020996 365.26416 C 146.020996 365.26416 56.025879 287.135254 41.582764 322.004395 C 27.139648 356.873535 146.020996 365.26416 146.020996 365.26416 Z"/>
            <path id="path36" fill="#fdf5e2" stroke="none" d="M 115.043213 521 C 115.043213 521 2 483.257813 2 521 C 2 558.742188 115.043213 521 115.043213 521 Z"/>
            <path id="path37" fill="#fdf5e2" stroke="none" d="M 146.020996 676.73584 C 146.020996 676.73584 27.139648 685.126465 41.58252 719.995605 C 56.025879 754.864502 146.020996 676.73584 146.020996 676.73584 Z"/>
            <path id="path38" fill="#fdf5e2" stroke="none" d="M 234.237793 808.761963 C 234.237793 808.761963 127.616943 862.007813 154.304688 888.695313 C 180.991943 915.382813 234.237793 808.761963 234.237793 808.761963 Z"/>
            <path id="path39" fill="#fdf5e2" stroke="none" d="M 366.264648 896.979004 C 366.264648 896.979004 288.135498 986.974121 323.004395 1001.41748 C 357.873535 1015.860352 366.264648 896.979004 366.264648 896.979004 Z"/>
            <path id="path40" fill="#fdf5e2" stroke="none" d="M 522 927.956543 C 522 927.956543 484.257813 1041 522 1041 C 559.742188 1041 522 927.956543 522 927.956543 Z"/>
            <path id="path41" fill="#fdf5e2" stroke="none" d="M 677.735352 896.979004 C 677.735352 896.979004 686.126465 1015.860352 720.995605 1001.41748 C 755.864258 986.974121 677.735352 896.979004 677.735352 896.979004 Z"/>
            <path id="path42" fill="#fdf5e2" stroke="none" d="M 809.761719 808.761963 C 809.761719 808.761963 863.007813 915.382813 889.695801 888.695313 C 916.382813 862.007813 809.761719 808.761963 809.761719 808.761963 Z"/>
            <path id="path43" fill="#fdf5e2" stroke="none" d="M 897.979004 676.73584 C 897.979004 676.73584 987.974121 754.864502 1002.416992 719.995605 C 1016.860352 685.126465 897.979004 676.73584 897.979004 676.73584 Z"/>
            <path id="path44" fill="#fdf5e2" stroke="none" d="M 928.956543 521 C 928.956543 521 1042 558.742188 1042 521 C 1042 483.257813 928.956543 521 928.956543 521 Z"/>
            <path id="path45" fill="#fdf5e2" stroke="none" d="M 897.979004 365.26416 C 897.979004 365.26416 1016.860352 356.873535 1002.41748 322.004395 C 987.974121 287.135254 897.979004 365.26416 897.979004 365.26416 Z"/>
            <path id="path46" fill="#fdf5e2" stroke="none" d="M 809.761719 233.237793 C 809.761719 233.237793 916.382813 179.992188 889.695801 153.304688 C 863.007813 126.617188 809.761719 233.237793 809.761719 233.237793 Z"/>
            <path id="path47" fill="#fdf5e2" stroke="none" d="M 677.735352 145.020996 C 677.735352 145.020996 755.864258 55.025879 720.995605 40.58252 C 686.126465 26.139648 677.735352 145.020996 677.735352 145.020996 Z"/>
        </g>
    </g>
</svg>
