<?xml version="1.0" encoding="UTF-8"?>
<!-- Generated by Pixelmator Pro 3.8 -->
<svg width="1043" height="1044" viewBox="0 0 1043 1044" xmlns="http://www.w3.org/2000/svg">
    <g id="fireworks-13--copy">
        <g id="Group">
            <path id="Path" fill="#fdf5e2" stroke="none" d="M 366.759583 149.630859 C 366.759583 149.630859 358.78418 31.752197 323.915405 46.195313 C 289.046265 60.638794 366.759583 149.630859 366.759583 149.630859 Z"/>
            <path id="path1" fill="#fdf5e2" stroke="none" d="M 148.630829 367.759583 C 148.630829 367.759583 59.638748 290.046326 45.195419 324.915466 C 30.752502 359.784546 148.630829 367.759583 148.630829 367.759583 Z"/>
            <path id="path2" fill="#fdf5e2" stroke="none" d="M 148.630829 676.240417 C 148.630829 676.240417 30.752502 684.215149 45.195419 719.084595 C 59.638748 753.953979 148.630829 676.240417 148.630829 676.240417 Z"/>
            <path id="path3" fill="#fdf5e2" stroke="none" d="M 366.759583 894.369385 C 366.759583 894.369385 289.046265 983.361206 323.915405 997.804626 C 358.78418 1012.248108 366.759583 894.369385 366.759583 894.369385 Z"/>
            <path id="path4" fill="#fdf5e2" stroke="none" d="M 675.240417 894.369385 C 675.240417 894.369385 683.21582 1012.248108 718.084534 997.804626 C 752.953735 983.361206 675.240417 894.369385 675.240417 894.369385 Z"/>
            <path id="path5" fill="#fdf5e2" stroke="none" d="M 893.369141 676.240417 C 893.369141 676.240417 982.361328 753.953979 996.804688 719.084595 C 1011.247437 684.215149 893.369141 676.240417 893.369141 676.240417 Z"/>
            <path id="path6" fill="#fdf5e2" stroke="none" d="M 893.369141 367.759583 C 893.369141 367.759583 1011.247437 359.784546 996.804688 324.915466 C 982.361328 290.046326 893.369141 367.759583 893.369141 367.759583 Z"/>
            <path id="path7" fill="#fdf5e2" stroke="none" d="M 675.240417 149.630859 C 675.240417 149.630859 752.953735 60.638794 718.084534 46.195313 C 683.21582 31.752197 675.240417 149.630859 675.240417 149.630859 Z"/>
        </g>
        <g id="g1">
            <path id="path8" fill="#fdf5e2" stroke="none" d="M 422.457458 284.097412 C 422.457458 284.097412 414.482056 166.21875 379.613342 180.662109 C 344.744141 195.105347 422.457458 284.097412 422.457458 284.097412 Z"/>
            <path id="path9" fill="#fdf5e2" stroke="none" d="M 283.097473 423.457458 C 283.097473 423.457458 194.105438 345.744202 179.662109 380.613342 C 165.21875 415.482178 283.097473 423.457458 283.097473 423.457458 Z"/>
            <path id="path10" fill="#fdf5e2" stroke="none" d="M 283.097473 620.542297 C 283.097473 620.542297 165.21875 628.518066 179.662109 663.386414 C 194.105438 698.255798 283.097473 620.542297 283.097473 620.542297 Z"/>
            <path id="path11" fill="#fdf5e2" stroke="none" d="M 422.457458 759.902344 C 422.457458 759.902344 344.744141 848.894653 379.613342 863.338135 C 414.482056 877.781006 422.457458 759.902344 422.457458 759.902344 Z"/>
            <path id="path12" fill="#fdf5e2" stroke="none" d="M 619.542542 759.902344 C 619.542542 759.902344 627.517944 877.781006 662.386658 863.338135 C 697.255859 848.894653 619.542542 759.902344 619.542542 759.902344 Z"/>
            <path id="path13" fill="#fdf5e2" stroke="none" d="M 758.902527 620.542297 C 758.902527 620.542297 847.894531 698.255798 862.337891 663.386414 C 876.78125 628.518066 758.902527 620.542297 758.902527 620.542297 Z"/>
            <path id="path14" fill="#fdf5e2" stroke="none" d="M 758.902527 423.457458 C 758.902527 423.457458 876.78125 415.482178 862.337891 380.613342 C 847.894531 345.744202 758.902527 423.457458 758.902527 423.457458 Z"/>
            <path id="path15" fill="#fdf5e2" stroke="none" d="M 619.542542 284.097412 C 619.542542 284.097412 697.255859 195.105347 662.386658 180.662109 C 627.517944 166.21875 619.542542 284.097412 619.542542 284.097412 Z"/>
        </g>
        <g id="g2">
            <path id="path16" fill="#fdf5e2" stroke="none" d="M 478.155396 418.564209 C 478.155396 418.564209 470.180054 300.685486 435.310852 315.128479 C 400.442078 329.571655 478.155396 418.564209 478.155396 418.564209 Z"/>
            <path id="path17" fill="#fdf5e2" stroke="none" d="M 417.563721 479.155334 C 417.563721 479.155334 328.571655 401.442078 314.128326 436.31073 C 299.684998 471.180115 417.563721 479.155334 417.563721 479.155334 Z"/>
            <path id="path18" fill="#fdf5e2" stroke="none" d="M 417.563721 564.844666 C 417.563721 564.844666 299.684998 572.819885 314.128326 607.68927 C 328.571655 642.558167 417.563721 564.844666 417.563721 564.844666 Z"/>
            <path id="path19" fill="#fdf5e2" stroke="none" d="M 478.155396 625.436279 C 478.155396 625.436279 400.442078 714.428101 435.310852 728.871582 C 470.180054 743.314453 478.155396 625.436279 478.155396 625.436279 Z"/>
            <path id="path20" fill="#fdf5e2" stroke="none" d="M 563.844604 625.436279 C 563.844604 625.436279 571.819946 743.315002 606.689148 728.871582 C 641.557922 714.428101 563.844604 625.436279 563.844604 625.436279 Z"/>
            <path id="path21" fill="#fdf5e2" stroke="none" d="M 624.436279 564.844666 C 624.436279 564.844666 713.428345 642.558167 727.871643 607.68927 C 742.314575 572.819885 624.436279 564.844666 624.436279 564.844666 Z"/>
            <path id="path22" fill="#fdf5e2" stroke="none" d="M 624.436279 479.155334 C 624.436279 479.155334 742.314575 471.180115 727.871643 436.31073 C 713.428345 401.442078 624.436279 479.155334 624.436279 479.155334 Z"/>
            <path id="path23" fill="#fdf5e2" stroke="none" d="M 563.844604 418.564209 C 563.844604 418.564209 641.557922 329.571655 606.689148 315.128479 C 571.819946 300.685486 563.844604 418.564209 563.844604 418.564209 Z"/>
        </g>
        <g id="g3">
            <path id="path24" fill="#fdf5e2" stroke="none" d="M 521 87.406494 L 487.532898 105.001221 L 493.924622 67.734863 L 466.848694 41.342773 L 504.266235 35.905884 L 521 2 L 537.733765 35.905884 L 575.151306 41.342773 L 548.075378 67.734863 L 554.467102 105.001221 L 521 87.406494 Z"/>
            <path id="path25" fill="#fdf5e2" stroke="none" d="M 521 187.055908 L 494.226257 201.131592 L 499.3396 171.318726 L 477.679138 150.205078 L 507.613342 145.855347 L 521 118.730835 L 534.387085 145.855347 L 564.320862 150.205078 L 542.6604 171.318726 L 547.773743 201.131592 L 521 187.055908 Z"/>
            <path id="path26" fill="#fdf5e2" stroke="none" d="M 521 286.705383 L 500.919556 297.262207 L 504.754578 274.902466 L 488.509583 259.067139 L 510.959961 255.805115 L 521 235.461304 L 531.040039 255.805115 L 553.490845 259.067139 L 537.245422 274.902466 L 541.080444 297.262207 L 521 286.705383 Z"/>
        </g>
        <g id="g4">
            <path id="path27" fill="#fdf5e2" stroke="none" d="M 213.696259 214.696106 L 202.472504 250.80249 L 180.640808 219.931702 L 142.83374 220.4151 L 165.447083 190.112183 L 153.304565 154.304688 L 189.112091 166.447021 L 219.414581 143.833862 L 218.931671 181.640747 L 249.80249 203.472534 L 213.696259 214.696106 Z"/>
            <path id="path28" fill="#fdf5e2" stroke="none" d="M 284.158722 285.158691 L 275.179993 314.043823 L 257.7146 289.347229 L 227.46875 289.733765 L 245.559601 265.491638 L 235.845398 236.84552 L 264.491669 246.559509 L 288.733765 228.468689 L 288.347076 258.714661 L 313.043762 276.179871 L 284.158722 285.158691 Z"/>
            <path id="path29" fill="#fdf5e2" stroke="none" d="M 354.621643 355.621704 L 347.887512 377.2854 L 334.78833 358.763 L 312.104156 359.052429 L 325.672089 340.871338 L 318.386688 319.386658 L 339.871216 326.671997 L 358.05249 313.104126 L 357.762939 335.78833 L 376.2854 348.887512 L 354.621643 355.621704 Z"/>
        </g>
        <g id="g5">
            <path id="path30" fill="#fdf5e2" stroke="none" d="M 86.406677 522 L 104.001251 555.467102 L 66.735001 549.075195 L 40.342911 576.151428 L 34.905823 538.733826 L 1 522 L 34.905823 505.266174 L 40.342911 467.849121 L 66.735001 494.924805 L 104.001251 488.532898 L 86.406677 522 Z"/>
            <path id="path31" fill="#fdf5e2" stroke="none" d="M 186.055847 522 L 200.131653 548.77356 L 170.318756 543.660339 L 149.205017 565.32074 L 144.855438 535.386536 L 117.730835 522 L 144.855438 508.612976 L 149.205017 478.67926 L 170.318756 500.339661 L 200.131653 495.22644 L 186.055847 522 Z"/>
            <path id="path32" fill="#fdf5e2" stroke="none" d="M 285.705414 522 L 296.262085 542.080566 L 273.902496 538.245544 L 258.067108 554.49054 L 254.804993 532.039795 L 234.461243 522 L 254.804993 511.960205 L 258.067108 489.508972 L 273.902496 505.754456 L 296.262085 501.919434 L 285.705414 522 Z"/>
        </g>
        <g id="g6">
            <path id="path33" fill="#fdf5e2" stroke="none" d="M 213.696259 829.303833 L 249.80249 840.52771 L 218.931671 862.359009 L 219.414581 900.166199 L 189.112091 877.552673 L 153.304565 889.695618 L 165.447083 853.887817 L 142.83374 823.585388 L 180.640808 824.068604 L 202.472504 793.19751 L 213.696259 829.303833 Z"/>
            <path id="path34" fill="#fdf5e2" stroke="none" d="M 284.158722 758.841309 L 313.043762 767.820068 L 288.347076 785.285278 L 288.733765 815.53125 L 264.491669 797.44043 L 235.845398 807.154724 L 245.559601 778.508423 L 227.46875 754.266235 L 257.7146 754.652832 L 275.179993 729.956421 L 284.158722 758.841309 Z"/>
            <path id="path35" fill="#fdf5e2" stroke="none" d="M 354.621643 688.378296 L 376.2854 695.112488 L 357.762939 708.21167 L 358.05249 730.895874 L 339.871216 717.327759 L 318.386688 724.613281 L 325.672089 703.128967 L 312.104156 684.947571 L 334.78833 685.237 L 347.887512 666.714355 L 354.621643 688.378296 Z"/>
        </g>
        <g id="g7">
            <path id="path36" fill="#fdf5e2" stroke="none" d="M 521 956.593201 L 554.467102 938.998779 L 548.075378 976.264832 L 575.151306 1002.656921 L 537.733765 1008.094177 L 521 1042.000244 L 504.266235 1008.094177 L 466.848694 1002.656921 L 493.924622 976.264832 L 487.532898 938.998779 L 521 956.593201 Z"/>
            <path id="path37" fill="#fdf5e2" stroke="none" d="M 521 856.944153 L 547.773743 842.868408 L 542.6604 872.68103 L 564.320862 893.795166 L 534.386658 898.144409 L 521 925.268921 L 507.612915 898.144409 L 477.679138 893.795166 L 499.3396 872.68103 L 494.226257 842.868408 L 521 856.944153 Z"/>
            <path id="path38" fill="#fdf5e2" stroke="none" d="M 521 757.294556 L 541.080444 746.738037 L 537.245422 769.09729 L 553.490417 784.932861 L 531.040039 788.19519 L 521 808.538696 L 510.959961 788.19519 L 488.509155 784.932861 L 504.754578 769.09729 L 500.919556 746.738037 L 521 757.294556 Z"/>
        </g>
        <g id="g8">
            <path id="path39" fill="#fdf5e2" stroke="none" d="M 828.303772 829.303833 L 839.527466 793.19751 L 861.359131 824.068604 L 899.16626 823.585388 L 876.552979 853.887817 L 888.695313 889.695618 L 852.887939 877.552673 L 822.585388 900.166199 L 823.068359 862.359009 L 792.19751 840.52771 L 828.303772 829.303833 Z"/>
            <path id="path40" fill="#fdf5e2" stroke="none" d="M 757.841248 758.841309 L 766.820007 729.956421 L 784.285461 754.652832 L 814.53125 754.266235 L 796.44043 778.508423 L 806.154602 807.154724 L 777.508301 797.44043 L 753.266235 815.53125 L 753.652893 785.285278 L 728.956238 767.820068 L 757.841248 758.841309 Z"/>
            <path id="path41" fill="#fdf5e2" stroke="none" d="M 687.378357 688.378296 L 694.112488 666.714355 L 707.21167 685.237 L 729.895813 684.947571 L 716.327881 703.128967 L 723.613342 724.613281 L 702.128784 717.327759 L 683.94751 730.895874 L 684.237061 708.21167 L 665.7146 695.112488 L 687.378357 688.378296 Z"/>
        </g>
        <g id="g9">
            <path id="path42" fill="#fdf5e2" stroke="none" d="M 955.593384 522 L 937.998779 488.532898 L 975.265015 494.924805 L 1001.657104 467.848877 L 1007.094116 505.266174 L 1041 522 L 1007.094116 538.733826 L 1001.657104 576.151428 L 975.265015 549.075195 L 937.998779 555.467102 L 955.593384 522 Z"/>
            <path id="path43" fill="#fdf5e2" stroke="none" d="M 855.944092 522 L 841.868347 495.22644 L 871.681274 500.339661 L 892.795044 478.67926 L 897.144531 508.613464 L 924.269165 522 L 897.144531 535.387024 L 892.795044 565.32074 L 871.681274 543.660339 L 841.868347 548.77356 L 855.944092 522 Z"/>
            <path id="path44" fill="#fdf5e2" stroke="none" d="M 756.294617 522 L 745.737915 501.919434 L 768.097534 505.754456 L 783.932922 489.50946 L 787.195007 511.960205 L 807.538757 522 L 787.195007 532.039795 L 783.932922 554.491028 L 768.097534 538.245544 L 745.737915 542.080566 L 756.294617 522 Z"/>
        </g>
        <g id="g10">
            <path id="path45" fill="#fdf5e2" stroke="none" d="M 828.303772 214.696106 L 792.19751 203.472534 L 823.068359 181.640747 L 822.585022 143.833862 L 852.887939 166.447021 L 888.695313 154.304688 L 876.552979 190.112183 L 899.16626 220.414612 L 861.359131 219.931702 L 839.527466 250.80249 L 828.303772 214.696106 Z"/>
            <path id="path46" fill="#fdf5e2" stroke="none" d="M 757.841248 285.158691 L 728.956238 276.179871 L 753.652893 258.714661 L 753.266235 228.468689 L 777.508301 246.559509 L 806.154602 236.84552 L 796.44043 265.491638 L 814.53125 289.733765 L 784.285461 289.347229 L 766.820007 314.043823 L 757.841248 285.158691 Z"/>
            <path id="path47" fill="#fdf5e2" stroke="none" d="M 687.378357 355.621704 L 665.7146 348.887512 L 684.237061 335.78833 L 683.94751 313.104126 L 702.128784 326.671997 L 723.613342 319.386658 L 716.327881 340.871338 L 729.895813 359.052429 L 707.21167 358.763 L 694.112488 377.2854 L 687.378357 355.621704 Z"/>
        </g>
        <path id="path48" fill="#fdf5e2" stroke="none" d="M 571 522 C 571 549.614319 548.614136 572 521 572 C 493.385864 572 471 549.614319 471 522 C 471 494.385681 493.385864 472 521 472 C 548.614136 472 571 494.385681 571 522 Z"/>
    </g>
</svg>
