<?xml version="1.0" encoding="UTF-8"?>
<!-- Generated by Pixelmator Pro 3.8 -->
<svg width="1044" height="1041" viewBox="0 0 1044 1041" xmlns="http://www.w3.org/2000/svg">
    <g id="fireworks-2--copy">
        <g id="Group">
            <path id="Path" fill="#fdf5e2" stroke="none" d="M 522 270.654785 C 522 270.654785 559.742065 161.80957 522 161.80957 C 484.257935 161.80957 522 270.654785 522 270.654785 Z"/>
            <path id="path1" fill="#fdf5e2" stroke="none" d="M 426.197021 289.711426 C 426.197021 289.711426 419.412842 174.708496 384.543701 189.151855 C 349.675049 203.594727 426.197021 289.711426 426.197021 289.711426 Z"/>
            <path id="path2" fill="#fdf5e2" stroke="none" d="M 344.979248 343.979004 C 344.979248 343.979004 294.70166 240.32666 268.01416 267.01416 C 241.32666 293.70166 344.979248 343.979004 344.979248 343.979004 Z"/>
            <path id="path3" fill="#fdf5e2" stroke="none" d="M 290.711182 425.197266 C 290.711182 425.197266 204.594604 348.674805 190.151733 383.543945 C 175.708374 418.413086 290.711182 425.197266 290.711182 425.197266 Z"/>
            <path id="path4" fill="#fdf5e2" stroke="none" d="M 271.655029 521 C 271.655029 521 162.80957 483.257813 162.80957 521 C 162.80957 558.742188 271.655029 521 271.655029 521 Z"/>
            <path id="path5" fill="#fdf5e2" stroke="none" d="M 290.711182 616.802734 C 290.711182 616.802734 175.708374 623.586914 190.151733 658.456055 C 204.594604 693.325195 290.711182 616.802734 290.711182 616.802734 Z"/>
            <path id="path6" fill="#fdf5e2" stroke="none" d="M 344.979248 698.020996 C 344.979248 698.020996 241.32666 748.29834 268.01416 774.98584 C 294.70166 801.67334 344.979248 698.020996 344.979248 698.020996 Z"/>
            <path id="path7" fill="#fdf5e2" stroke="none" d="M 426.197021 752.288818 C 426.197021 752.288818 349.675049 838.405518 384.543701 852.848389 C 419.412842 867.291748 426.197021 752.288818 426.197021 752.288818 Z"/>
            <path id="path8" fill="#fdf5e2" stroke="none" d="M 522 771.344971 C 522 771.344971 484.257935 880.19043 522 880.19043 C 559.742065 880.19043 522 771.344971 522 771.344971 Z"/>
            <path id="path9" fill="#fdf5e2" stroke="none" d="M 617.802979 752.288818 C 617.802979 752.288818 624.587158 867.291748 659.456299 852.848389 C 694.324951 838.405518 617.802979 752.288818 617.802979 752.288818 Z"/>
            <path id="path10" fill="#fdf5e2" stroke="none" d="M 699.020752 698.020996 C 699.020752 698.020996 749.29834 801.67334 775.98584 774.98584 C 802.67334 748.29834 699.020752 698.020996 699.020752 698.020996 Z"/>
            <path id="path11" fill="#fdf5e2" stroke="none" d="M 753.288818 616.802734 C 753.288818 616.802734 839.405518 693.325195 853.848389 658.456055 C 868.291504 623.586914 753.288818 616.802734 753.288818 616.802734 Z"/>
            <path id="path12" fill="#fdf5e2" stroke="none" d="M 772.345215 521 C 772.345215 521 881.190186 558.742188 881.190186 521 C 881.190186 483.257813 772.345215 521 772.345215 521 Z"/>
            <path id="path13" fill="#fdf5e2" stroke="none" d="M 753.288818 425.197266 C 753.288818 425.197266 868.291504 418.413086 853.848389 383.543945 C 839.405518 348.674805 753.288818 425.197266 753.288818 425.197266 Z"/>
            <path id="path14" fill="#fdf5e2" stroke="none" d="M 699.020752 343.979004 C 699.020752 343.979004 802.67334 293.70166 775.98584 267.01416 C 749.29834 240.32666 699.020752 343.979004 699.020752 343.979004 Z"/>
            <path id="path15" fill="#fdf5e2" stroke="none" d="M 617.802979 289.711426 C 617.802979 289.711426 694.324951 203.594727 659.456299 189.151855 C 624.587158 174.708496 617.802979 289.711426 617.802979 289.711426 Z"/>
        </g>
        <g id="g1">
            <path id="path16" fill="#fdf5e2" stroke="none" d="M 368.322144 149.98877 C 368.322144 149.98877 360.50293 32.487305 325.634155 46.930664 C 290.765015 61.373535 368.322144 149.98877 368.322144 149.98877 Z"/>
            <path id="path17" fill="#fdf5e2" stroke="none" d="M 150.98877 367.322266 C 150.98877 367.322266 62.373779 289.765137 47.930786 324.634277 C 33.487427 359.50293 150.98877 367.322266 150.98877 367.322266 Z"/>
            <path id="path18" fill="#fdf5e2" stroke="none" d="M 150.98877 674.677734 C 150.98877 674.677734 33.487427 682.49707 47.930786 717.365723 C 62.373779 752.235107 150.98877 674.677734 150.98877 674.677734 Z"/>
            <path id="path19" fill="#fdf5e2" stroke="none" d="M 368.322144 892.01123 C 368.322144 892.01123 290.765015 980.626221 325.634155 995.069336 C 360.50293 1009.512451 368.322144 892.01123 368.322144 892.01123 Z"/>
            <path id="path20" fill="#fdf5e2" stroke="none" d="M 675.677979 892.01123 C 675.677979 892.01123 683.49707 1009.512451 718.365967 995.069336 C 753.235107 980.626221 675.677979 892.01123 675.677979 892.01123 Z"/>
            <path id="path21" fill="#fdf5e2" stroke="none" d="M 893.010742 674.677734 C 893.010742 674.677734 981.625732 752.235107 996.069336 717.365723 C 1010.512451 682.49707 893.010742 674.677734 893.010742 674.677734 Z"/>
            <path id="path22" fill="#fdf5e2" stroke="none" d="M 893.01123 367.322266 C 893.01123 367.322266 1010.512451 359.50293 996.069336 324.634277 C 981.625732 289.765137 893.01123 367.322266 893.01123 367.322266 Z"/>
            <path id="path23" fill="#fdf5e2" stroke="none" d="M 675.677979 149.98877 C 675.677979 149.98877 753.235107 61.373535 718.365967 46.930664 C 683.49707 32.487305 675.677979 149.98877 675.677979 149.98877 Z"/>
        </g>
        <g id="g2">
            <path id="path24" fill="#fdf5e2" stroke="none" d="M 522 418.373535 C 522 418.373535 553.45166 315.748535 522 315.748535 C 490.54834 315.748535 522 418.373535 522 418.373535 Z"/>
            <path id="path25" fill="#fdf5e2" stroke="none" d="M 482.726685 426.186035 C 482.726685 426.186035 472.511353 319.336426 443.453735 331.37207 C 414.39624 343.408203 482.726685 426.186035 482.726685 426.186035 Z"/>
            <path id="path26" fill="#fdf5e2" stroke="none" d="M 449.432495 448.432617 C 449.432495 448.432617 399.10498 353.625488 376.86499 375.865234 C 354.625488 398.10498 449.432495 448.432617 449.432495 448.432617 Z"/>
            <path id="path27" fill="#fdf5e2" stroke="none" d="M 427.185791 481.726563 C 427.185791 481.726563 344.408325 413.395996 332.37207 442.453613 C 320.336304 471.51123 427.185791 481.726563 427.185791 481.726563 Z"/>
            <path id="path28" fill="#fdf5e2" stroke="none" d="M 419.373657 521 C 419.373657 521 316.748291 489.54834 316.748291 521 C 316.748291 552.45166 419.373657 521 419.373657 521 Z"/>
            <path id="path29" fill="#fdf5e2" stroke="none" d="M 427.185791 560.273438 C 427.185791 560.273438 320.336304 570.48877 332.37207 599.546387 C 344.408325 628.604004 427.185791 560.273438 427.185791 560.273438 Z"/>
            <path id="path30" fill="#fdf5e2" stroke="none" d="M 449.432495 593.567383 C 449.432495 593.567383 354.625488 643.89502 376.86499 666.134766 C 399.10498 688.374512 449.432495 593.567383 449.432495 593.567383 Z"/>
            <path id="path31" fill="#fdf5e2" stroke="none" d="M 482.726685 615.813965 C 482.726685 615.813965 414.39624 698.591797 443.453735 710.62793 C 472.511353 722.663574 482.726685 615.813965 482.726685 615.813965 Z"/>
            <path id="path32" fill="#fdf5e2" stroke="none" d="M 522 623.626465 C 522 623.626465 490.54834 726.251709 522 726.251709 C 553.45166 726.251709 522 623.626465 522 623.626465 Z"/>
            <path id="path33" fill="#fdf5e2" stroke="none" d="M 561.273315 615.813965 C 561.273315 615.813965 571.488647 722.663574 600.546265 710.62793 C 629.60376 698.591797 561.273315 615.813965 561.273315 615.813965 Z"/>
            <path id="path34" fill="#fdf5e2" stroke="none" d="M 594.567505 593.567383 C 594.567505 593.567383 644.89502 688.374512 667.134644 666.134766 C 689.374512 643.89502 594.567505 593.567383 594.567505 593.567383 Z"/>
            <path id="path35" fill="#fdf5e2" stroke="none" d="M 616.814209 560.273438 C 616.814209 560.273438 699.591797 628.604004 711.627441 599.546387 C 723.663818 570.48877 616.814209 560.273438 616.814209 560.273438 Z"/>
            <path id="path36" fill="#fdf5e2" stroke="none" d="M 624.626343 521 C 624.626343 521 727.251709 552.45166 727.251709 521 C 727.251709 489.54834 624.626343 521 624.626343 521 Z"/>
            <path id="path37" fill="#fdf5e2" stroke="none" d="M 616.814209 481.726563 C 616.814209 481.726563 723.663818 471.51123 711.627441 442.453613 C 699.591797 413.395996 616.814209 481.726563 616.814209 481.726563 Z"/>
            <path id="path38" fill="#fdf5e2" stroke="none" d="M 594.567505 448.432617 C 594.567505 448.432617 689.374512 398.10498 667.134644 375.865234 C 644.89502 353.625488 594.567505 448.432617 594.567505 448.432617 Z"/>
            <path id="path39" fill="#fdf5e2" stroke="none" d="M 561.273315 426.186035 C 561.273315 426.186035 629.60376 343.408203 600.546265 331.372559 C 571.488647 319.336426 561.273315 426.186035 561.273315 426.186035 Z"/>
        </g>
        <g id="g3">
            <path id="path40" fill="#fdf5e2" stroke="none" d="M 522 86.095215 L 488.655029 103.625977 L 495.023315 66.495605 L 468.046143 40.199707 L 505.327515 34.782715 L 522 1 L 538.672485 34.782715 L 575.953857 40.199707 L 548.976685 66.495605 L 555.345093 103.625977 L 522 86.095215 Z"/>
            <path id="path41" fill="#fdf5e2" stroke="none" d="M 214.47583 213.475586 L 203.293335 249.450195 L 181.541138 218.691895 L 143.871704 219.173828 L 166.402954 188.981445 L 154.304688 153.304688 L 189.981689 165.402832 L 220.173828 142.871582 L 219.692139 180.541016 L 250.450439 202.293457 L 214.47583 213.475586 Z"/>
            <path id="path42" fill="#fdf5e2" stroke="none" d="M 87.094971 521 L 104.625854 554.345215 L 67.495483 547.976563 L 41.199585 574.953125 L 35.782104 537.672363 L 2 521 L 35.782104 504.327637 L 41.199585 467.046387 L 67.495483 494.023438 L 104.625854 487.654785 L 87.094971 521 Z"/>
            <path id="path43" fill="#fdf5e2" stroke="none" d="M 214.47583 828.52417 L 250.450439 839.706543 L 219.692139 861.45874 L 220.173828 899.128418 L 189.981201 876.597168 L 154.304688 888.695313 L 166.402954 853.018311 L 143.871704 822.826172 L 181.541138 823.307861 L 203.293335 792.549561 L 214.47583 828.52417 Z"/>
            <path id="path44" fill="#fdf5e2" stroke="none" d="M 522 955.905029 L 555.345093 938.374268 L 548.976685 975.504639 L 575.953247 1001.800293 L 538.672485 1007.217529 L 522 1041 L 505.327515 1007.217529 L 468.046143 1001.800293 L 495.023315 975.504639 L 488.654541 938.374268 L 522 955.905029 Z"/>
            <path id="path45" fill="#fdf5e2" stroke="none" d="M 829.52417 828.52417 L 840.706787 792.549561 L 862.45874 823.307861 L 900.127686 822.826172 L 877.597168 853.018799 L 889.695313 888.695313 L 854.018311 876.597168 L 823.826172 899.128418 L 824.307861 861.45874 L 793.549561 839.706543 L 829.52417 828.52417 Z"/>
            <path id="path46" fill="#fdf5e2" stroke="none" d="M 956.904541 521 L 939.374268 487.654785 L 976.504639 494.023438 L 1002.800293 467.046875 L 1008.217529 504.327637 L 1042 521 L 1008.217529 537.672363 L 1002.800293 574.953613 L 976.504639 547.976563 L 939.374268 554.345215 L 956.904541 521 Z"/>
            <path id="path47" fill="#fdf5e2" stroke="none" d="M 829.52417 213.475586 L 793.549561 202.293457 L 824.307861 180.541016 L 823.826172 142.871582 L 854.018799 165.402832 L 889.695313 153.304688 L 877.597168 188.981445 L 900.128418 219.173828 L 862.45874 218.691895 L 840.706787 249.450195 L 829.52417 213.475586 Z"/>
        </g>
        <path id="path48" fill="#fdf5e2" stroke="none" d="M 563.050415 521 C 563.050415 543.671875 544.671265 562.050293 522 562.050293 C 499.328369 562.050293 480.949585 543.671875 480.949585 521 C 480.949585 498.328613 499.328369 479.949707 522 479.949707 C 544.671265 479.949707 563.050415 498.328613 563.050415 521 Z"/>
    </g>
</svg>
