<?xml version="1.0" encoding="UTF-8"?>
<!-- Generated by Pixelmator Pro 3.7.1 -->
<svg width="423" height="555" viewBox="0 0 423 555" xmlns="http://www.w3.org/2000/svg">
    <path id="Shape" fill="#000000" fill-rule="evenodd" stroke="none" d="M 217.622528 554.886414 C 208.645325 555.15033 196.906189 554.938477 191.535538 554.41571 C 186.164886 553.892883 176.056976 552.371948 169.073517 551.035889 C 162.090057 549.699829 151.541 547.058533 145.631149 545.166382 C 139.721313 543.274231 130.580322 539.741577 125.317825 537.316101 C 120.055328 534.890625 112.203804 530.821716 107.869987 528.274048 C 103.536171 525.726318 95.431358 520.221497 89.859314 516.041077 C 84.287262 511.860657 74.805702 503.456055 68.7892 497.364227 C 62.77269 491.2724 55.01474 482.74231 51.549324 478.408508 C 48.0839 474.074677 42.725784 466.47644 39.642387 461.523499 C 36.558994 456.570557 31.037535 446.439575 27.372478 439.010132 C 23.707426 431.58075 18.434551 418.663696 15.654984 410.305634 C 12.875415 401.947571 9.334418 388.777252 7.7861 381.0383 C 6.237782 373.299316 4.43669 362.661804 3.783675 357.399292 C 3.130659 352.13678 2.284148 340.486145 1.902542 331.508942 C 1.511469 322.309082 1.79043 307.082062 2.541836 296.613251 C 3.275054 286.397827 4.612526 272.974243 5.513999 266.783081 C 6.415471 260.591919 8.207257 250.207642 9.495743 243.706909 C 10.78423 237.206177 13.571635 225.454407 15.689978 217.591827 C 17.808319 209.729279 21.303219 198.234985 23.456429 192.048981 C 25.609634 185.862946 29.70854 175.326569 32.565105 168.634705 C 35.421673 161.942871 39.4534 152.893799 41.524498 148.525696 C 43.595596 144.157562 48.873589 134.107849 53.253368 126.193024 C 57.633152 118.278198 64.921432 106.149048 69.449547 99.23938 C 73.977661 92.329742 81.416267 81.872314 85.979782 76.000702 C 90.543297 70.129059 100.121506 59.302429 107.264702 51.941467 C 114.40789 44.580536 124.304733 35.290527 129.25766 31.297119 C 134.210587 27.30365 142.315399 21.653809 147.268326 18.741882 C 152.221268 15.829956 160.379089 11.547241 165.396835 9.224731 C 170.414566 6.9021 179.025909 3.876404 184.533173 2.500916 C 192.914597 0.407532 197.664825 0 213.682693 0 C 231.341873 0 233.639648 0.242676 243.450043 3.14386 C 249.297089 4.872986 258.161713 8.213562 263.1492 10.567383 C 268.136688 12.921204 276.776306 17.928589 282.348389 21.694885 C 287.920441 25.461243 297.068634 32.5625 302.677673 37.475525 C 308.286774 42.388489 317.574738 51.669403 323.317596 58.099762 C 329.060486 64.530151 337.342957 74.537872 341.723175 80.339203 C 346.103333 86.140503 353.532532 97.031342 358.232422 104.541016 C 362.932343 112.05072 370.549622 125.540009 375.159698 134.517212 C 379.769806 143.494415 385.725311 155.853729 388.394196 161.982391 C 391.063049 168.111023 395.216949 178.4953 397.625 185.058563 C 400.033081 191.621796 404.086823 204.3367 406.633331 213.313904 C 409.17984 222.291107 412.76828 236.981049 414.607666 245.958252 C 416.447052 254.935455 418.733582 268.86557 419.688873 276.914093 C 420.644135 284.962616 421.746582 300.822571 422.138794 312.158386 C 422.596527 325.389282 422.358276 337.88385 421.473328 347.054077 C 420.715118 354.910828 419.105408 367.164429 417.89621 374.284302 C 416.686981 381.404114 414.352142 392.041687 412.707642 397.923279 C 411.063171 403.804932 407.544098 414.069519 404.887482 420.733459 C 402.230896 427.397491 397.249817 438.33844 393.818451 445.046753 C 390.387054 451.755035 383.960205 462.512268 379.536499 468.951721 C 374.060303 476.92334 366.249695 485.893341 355.062561 497.058716 C 342.74353 509.353821 335.533051 515.504578 326.24939 521.637268 C 319.439117 526.136108 309.135193 532.09729 303.351807 534.884399 C 297.56842 537.671448 289.463593 541.192627 285.341156 542.709106 C 281.218658 544.225647 273.033478 546.739136 267.151886 548.294617 C 261.270264 549.850159 251.392532 551.861694 245.20137 552.764709 C 239.010193 553.667725 226.599731 554.622437 217.622528 554.886414 Z"/>
</svg>
